<svg xmlns="http://www.w3.org/2000/svg" shape-rendering="geometricPrecision" text-rendering="geometricPrecision" image-rendering="optimizeQuality" fill-rule="evenodd" clip-rule="evenodd" viewBox="0 0 512 512"><path fill="#5865F2" fill-rule="nonzero" d="M256 0c70.691 0 134.692 28.654 181.018 74.982C483.346 121.309 512 185.309 512 256s-28.654 134.692-74.982 181.018C390.692 483.346 326.691 512 256 512s-134.692-28.654-181.018-74.982C28.654 390.692 0 326.691 0 256S28.654 121.308 74.982 74.982C121.309 28.654 185.309 0 256 0zm89.946 174.244a214.756 214.756 0 00-53.474-16.444 149.372 149.372 0 00-6.829 13.924 199.563 199.563 0 00-29.673-2.231c-9.917 0-19.883.755-29.678 2.212-2-4.722-4.324-9.405-6.845-13.906a216.458 216.458 0 00-53.486 16.477c-33.844 50.066-43.015 98.881-38.429 147.002a215.58 215.58 0 0065.576 32.914c5.288-7.138 10.024-14.736 14.045-22.644a138.647 138.647 0 01-22.126-10.56c1.855-1.344 3.67-2.73 5.422-4.075A154.288 154.288 0 00256 331.559c22.66 0 45.055-5.021 65.552-14.649 1.773 1.448 3.587 2.834 5.422 4.077a139.491 139.491 0 01-22.167 10.588 157.55 157.55 0 0014.046 22.626 214.764 214.764 0 0065.62-32.907l-.005.005c5.38-55.805-9.193-104.172-38.522-147.055zm-132.994 117.44c-12.779 0-23.336-11.597-23.336-25.865 0-14.267 10.19-25.967 23.296-25.967 13.105 0 23.581 11.7 23.357 25.967-.223 14.268-10.292 25.865-23.317 25.865zm86.095 0c-12.8 0-23.318-11.597-23.318-25.865 0-14.267 10.192-25.967 23.318-25.967 13.125 0 23.52 11.7 23.296 25.967-.224 14.268-10.272 25.865-23.296 25.865zM419.782 92.218c-41.914-41.913-99.82-67.837-163.781-67.837-63.962 0-121.867 25.924-163.78 67.837-41.913 41.914-67.837 99.82-67.837 163.781 0 63.962 25.924 121.867 67.837 163.78 41.913 41.913 99.82 67.837 163.78 67.837 63.963 0 121.867-25.924 163.781-67.837 41.913-41.913 67.837-99.82 67.837-163.78 0-63.963-25.924-121.867-67.837-163.781z"/></svg>